<svg viewBox="0 0 12 17" fill="none" xmlns="http://www.w3.org/2000/svg">
    <path
        d="M1.8252 16.8931C1.50293 16.8931 1.24414 16.7881 1.04883 16.5781C0.858398 16.3682 0.763184 16.085 0.763184 15.7285V2.91113C0.763184 2.15918 0.958496 1.58545 1.34912 1.18994C1.73975 0.794434 2.30615 0.59668 3.04834 0.59668H8.94434C9.68652 0.59668 10.2529 0.794434 10.6436 1.18994C11.0391 1.58545 11.2368 2.15918 11.2368 2.91113V15.7285C11.2368 16.085 11.1392 16.3682 10.9438 16.5781C10.7534 16.7881 10.4946 16.8931 10.1675 16.8931C9.95264 16.8931 9.75732 16.8345 9.58154 16.7173C9.41064 16.6001 9.17139 16.3926 8.86377 16.0947L6.05859 13.3115C6.01953 13.2676 5.97803 13.2676 5.93408 13.3115L3.13623 16.0947C2.82861 16.3926 2.58447 16.6001 2.40381 16.7173C2.22803 16.8345 2.03516 16.8931 1.8252 16.8931Z"
        fill="currentColor"/>
</svg>
