<svg viewBox="0 0 12 17" fill="none" xmlns="http://www.w3.org/2000/svg">
    <path
        d="M1.8252 16.8931C1.50293 16.8931 1.24414 16.7881 1.04883 16.5781C0.858398 16.3682 0.763184 16.085 0.763184 15.7285V2.91113C0.763184 2.15918 0.958496 1.58545 1.34912 1.18994C1.73975 0.794434 2.30615 0.59668 3.04834 0.59668H8.94434C9.68652 0.59668 10.2529 0.794434 10.6436 1.18994C11.0391 1.58545 11.2368 2.15918 11.2368 2.91113V15.7285C11.2368 16.085 11.1392 16.3682 10.9438 16.5781C10.7534 16.7881 10.4946 16.8931 10.1675 16.8931C9.95264 16.8931 9.75732 16.8345 9.58154 16.7173C9.41064 16.6001 9.17139 16.3926 8.86377 16.0947L6.05859 13.3115C6.01953 13.2676 5.97803 13.2676 5.93408 13.3115L3.13623 16.0947C2.82861 16.3926 2.58447 16.6001 2.40381 16.7173C2.22803 16.8345 2.03516 16.8931 1.8252 16.8931ZM2.59424 14.2197L5.45068 11.4438C5.63135 11.2729 5.81445 11.1875 6 11.1875C6.18555 11.1875 6.36621 11.2729 6.54199 11.4438L9.40576 14.2197C9.45459 14.2637 9.50098 14.2783 9.54492 14.2637C9.59375 14.2539 9.61816 14.2148 9.61816 14.1465V3.03564C9.61816 2.75732 9.5498 2.55225 9.41309 2.42041C9.27637 2.28369 9.07129 2.21533 8.79785 2.21533H3.20947C2.92627 2.21533 2.71631 2.28369 2.57959 2.42041C2.44775 2.55225 2.38184 2.75732 2.38184 3.03564V14.1465C2.38184 14.2148 2.40381 14.2539 2.44775 14.2637C2.4917 14.2783 2.54053 14.2637 2.59424 14.2197Z"
        fill="currentColor"/>
</svg>
