<svg viewBox="0 0 41 40" fill="none" xmlns="http://www.w3.org/2000/svg">
  <g clip-path="url(#clip0_301_56636)">
    <path
      d="M20.5202 39.7884C20.5245 38.868 20.6081 37.9357 20.7489 37.0264C22.1104 28.2332 29.5297 21.154 38.4638 20.1387C39.1193 20.0641 39.7679 20.041 40.4265 20.0146C40.4539 20.0136 40.5117 20.0315 40.498 19.9844C34.3453 19.8732 28.4253 16.8563 24.7083 12.0503C21.9711 8.51088 20.7027 4.72805 20.5204 0.271038C20.5194 0.243877 20.5374 0.186714 20.4899 0.200294C20.3721 6.54832 17.0513 12.6969 11.8072 16.3034C8.40263 18.645 4.72216 19.8081 0.573548 19.9741C0.546106 19.9751 0.488355 19.9573 0.502076 20.0043C4.27101 20.0554 7.88615 21.17 11.0417 23.1669C16.5909 26.6781 20.1671 32.7439 20.4805 39.2914C20.4874 39.4386 20.4614 39.6184 20.4797 39.7586C20.4835 39.7882 20.4952 39.8215 20.5206 39.7886L20.5202 39.7884Z"
      fill="currentColor"/>
  </g>
  <defs>
    <clipPath id="clip0_301_56636">
      <rect width="40" height="39.604" fill="white" transform="matrix(1 0 0 -1 0.5 39.802)"/>
    </clipPath>
  </defs>
</svg>
